<svg xmlns="http://www.w3.org/2000/svg" width="42" height="42" viewBox="0 0 42 42" fill="none">
  <g clip-path="url(#clip0_48068_80)">
    <path d="M40.1596 33.2808C40.9086 34.0552 41.3293 35.1045 41.3293 36.1985C41.3293 37.2925 40.9086 38.3418 40.1596 39.1162L38.5369 40.7917C38.1662 41.1761 37.7253 41.4808 37.2396 41.6882C36.754 41.8957 36.2334 42.0016 35.7078 42C35.1823 42.0016 34.6617 41.8956 34.1762 41.6882C33.6907 41.4808 33.2499 41.1761 32.8793 40.7917L20.0279 27.5346L18.2354 29.3839C18.2834 29.9796 18.2046 30.579 18.0045 31.14C17.8043 31.701 17.4876 32.21 17.0767 32.6314L15.3693 34.3928C14.9987 34.7772 14.5579 35.0819 14.0724 35.2893C13.5869 35.4967 13.0663 35.6027 12.5409 35.6012C12.0155 35.6026 11.495 35.4966 11.0097 35.2892C10.5243 35.0818 10.0836 34.7771 9.71304 34.3928L1.7876 26.2177C1.03866 25.4434 0.618042 24.3942 0.618042 23.3003C0.618042 22.2064 1.03866 21.1572 1.7876 20.3829L3.49494 18.6215C3.90344 18.1976 4.39687 17.8709 4.94064 17.6644C5.48441 17.4579 6.06538 17.3766 6.64282 17.4261L17.5113 6.21537C17.4645 5.62004 17.5438 5.02134 17.7437 4.46078C17.9435 3.90022 18.2592 3.39122 18.6688 2.96909L20.3755 1.20832C20.746 0.8241 21.1868 0.51948 21.6721 0.31208C22.1575 0.104679 22.6779 -0.00138769 23.2033 1.37075e-05C24.2718 1.37075e-05 25.2764 0.42906 26.0318 1.20832L33.9566 9.38346C34.7054 10.1579 35.1259 11.207 35.1259 12.3008C35.1259 13.3947 34.7054 14.4438 33.9566 15.2182L32.2499 16.9796C31.8413 17.4037 31.3477 17.7304 30.8039 17.9369C30.26 18.1434 29.6789 18.2246 29.1014 18.175L27.3088 20.0243L40.1596 33.2808ZM20.1381 23.122L23.0311 20.1374L25.1981 17.9017L28.4268 14.5714L28.6773 14.8299C28.8828 15.0418 29.1521 15.1478 29.4214 15.1478C29.6907 15.1478 29.96 15.0418 30.1661 14.8299L31.8728 13.0691C31.9705 12.9683 32.0481 12.8486 32.1009 12.7169C32.1538 12.5852 32.181 12.4441 32.181 12.3015C32.181 12.1589 32.1538 12.0178 32.1009 11.886C32.0481 11.7543 31.9705 11.6347 31.8728 11.5339L23.9474 3.35808C23.8498 3.25716 23.7338 3.17713 23.6061 3.12258C23.4784 3.06802 23.3415 3.04002 23.2033 3.04017C22.934 3.04017 22.6647 3.14614 22.4592 3.35808L20.7519 5.11884C20.6541 5.21966 20.5765 5.33937 20.5236 5.47114C20.4706 5.60291 20.4434 5.74416 20.4434 5.8868C20.4434 6.02944 20.4706 6.17068 20.5236 6.30245C20.5765 6.43422 20.6541 6.55394 20.7519 6.65475L21.0024 6.91321L7.31737 21.0297L7.06684 20.7713C6.96921 20.6704 6.85322 20.5903 6.72553 20.5358C6.59785 20.4812 6.46098 20.4532 6.32277 20.4534C6.05346 20.4534 5.78414 20.5593 5.57871 20.7713L3.87199 22.5314C3.77427 22.6322 3.69675 22.7519 3.64387 22.8836C3.59098 23.0153 3.56376 23.1565 3.56376 23.299C3.56376 23.4416 3.59098 23.5828 3.64387 23.7145C3.69675 23.8462 3.77427 23.9659 3.87199 24.0667L11.7968 32.2431C12.0022 32.455 12.2715 32.561 12.5409 32.561C12.8102 32.561 13.0795 32.455 13.2856 32.2431L14.9923 30.4823C15.0901 30.3815 15.1677 30.2618 15.2206 30.13C15.2736 29.9983 15.3008 29.857 15.3008 29.7144C15.3008 29.5717 15.2736 29.4305 15.2206 29.2987C15.1677 29.1669 15.0901 29.0472 14.9923 28.9464L14.7418 28.688L17.9704 25.3577L20.1381 23.122ZM38.0759 35.4312L25.2244 22.1741L22.1116 25.3855L34.9637 38.642C35.1685 38.8539 35.4385 38.9599 35.7078 38.9599C35.9771 38.9599 36.2464 38.8539 36.4518 38.642L38.0759 36.9665C38.1736 36.8657 38.2511 36.746 38.304 36.6143C38.3569 36.4826 38.3841 36.3414 38.3841 36.1988C38.3841 36.0563 38.3569 35.9151 38.304 35.7834C38.2511 35.6517 38.1736 35.532 38.0759 35.4312Z" fill="#3172B9"/>
  </g>
  <defs>
    <clipPath id="clip0_48068_80">
      <rect width="42" height="42" fill="white"/>
    </clipPath>
  </defs>
</svg>