<svg width="17" height="16" fill="none" xmlns="http://www.w3.org/2000/svg"><g clip-path="url(#a)"><path d="M3.85973 15.999V5.20386H.215035V15.999H3.85973ZM2.03785 3.72907c1.27097 0 2.06209-.82894 2.06209-1.86485C4.07626.804959 3.30887-.00097656 2.06197-.00097656.815269-.00097656 0 .804975 0 1.86422c0 1.03596.790923 1.86485 2.01406 1.86485h.02379ZM5.87706 15.999h3.64469V9.97048c0-.32264.02368-.64494.11993-.87558.26348-.64463.86322-1.31228 1.87002-1.31228 1.3188 0 1.8465.98996 1.8465 2.44118v5.7752h3.6444V9.8091c0-3.31585-1.7981-4.85868-4.1961-4.85868-1.9661 0-2.8294 1.08195-3.30899 1.81886h.02433V5.20363h-3.6447c.04783 1.01296 0 10.79517 0 10.79517l-.00008.0002Z" fill="#000"/></g><defs><clipPath id="a"><path fill="#fff" d="M0 0h17v16H0z"/></clipPath></defs></svg>