<svg width="18" height="14" fill="none" xmlns="http://www.w3.org/2000/svg"><g clip-path="url(#a)"><path d="M17.719 1.65632c-.6518.28117-1.3518.47124-2.0878.55668.7512-.43731 1.3266-1.13029 1.5983-1.955048-.7135.412028-1.4944.702096-2.3088.857608C14.258.428779 13.313 0 12.2675 0c-2.0068 0-3.63439 1.58169-3.63439 3.53391 0 .27661.03205.54647.09365.80556C5.70575 4.19186 3.02744 2.78497 1.2347.647183.921659 1.16929.742478 1.77633.742478 2.42402c0 1.22589.641792 2.30751 1.616982 2.9411-.57729-.01739-1.14192-.16889-1.646681-.44182v.04465c0 1.71238 1.252761 3.14022 2.915721 3.46495-.30548.08137-.62607.12389-.95774.12389-.23449 0-.462-.02158-.68425-.06222.46257 1.40352 1.80499 2.42513 3.39513 2.45403-1.24403.9481-2.81156 1.5133-4.514078 1.5133-.293238 0-.583051-.017-.867562-.0504C1.60887 13.4145 3.51914 14 5.57194 14 12.2576 14 15.914 8.61508 15.914 3.94522c0-.15331-.0035-.30548-.0111-.4571.7124-.50096 1.3274-1.12124 1.8161-1.8318Z" fill="#000"/></g><defs><clipPath id="a"><path fill="#fff" d="M0 0h18v14H0z"/></clipPath></defs></svg>