<svg width="64" height="64" fill="none" xmlns="http://www.w3.org/2000/svg"><g clip-path="url(#a)"><path d="m63.8101 15.073-10.478 33.073.247.78c.1602.5004.2195 1.0277.1745 1.5512-.045.5236-.1933 1.033-.4365 1.4988-.393.756-1 1.353-1.747 1.728l-.009.033-2.367 7.47c-.3219 1.0101-1.0309 1.8515-1.9718 2.3399-.9408.4885-2.037.5841-3.0482.2661l-12.174-3.856-12.174 3.856c-1.0113.318-2.1074.2224-3.0483-.2661-.9409-.4884-1.6499-1.3298-1.9717-2.3399L.188058 15.074c-.1599869-.5005-.2191193-1.0278-.1739756-1.5513.0451438-.5236.1936676-1.033.4369756-1.4987.240612-.4674.571612-.8824.973812-1.2209.40219-.3385.86758-.5938 1.36919-.7511L33.9431.187c1.0111-.318631 2.1073-.2233451 3.0484.264969.941.488314 1.65 1.329811 1.9716 2.340031l.077.242c.009.002.018.003.026.006l22.14 7.013c.5012.1573.9662.4124 1.3682.7505.402.3382.733.7526.9738 1.2195.492.95.585 2.032.262 3.05ZM48.4441 54.75l-12.028 3.809 8.562 2.712c.3372.1067.703.0753 1.017-.0875.3141-.1627.5507-.4434.658-.7805l1.791-5.653Zm2.593-5.018L36.4211 3.598c-.1069-.33694-.3431-.61771-.6567-.78064-.3137-.16294-.6792-.19472-1.0163-.08836L3.60006 12.595c-.34.107-.617.34-.781.657-.08119.1553-.13077.3251-.14587.4997-.01511.1746.00456.3504.05787.5173L17.3471 60.402c.222.701.973 1.09 1.674.869l12.54-3.972c.028-.01.056-.02.085-.027l18.523-5.867c.34-.107.617-.34.78-.657.165-.316.196-.677.088-1.017v.001Zm-2.54-16.847 4.949-15.62-11.001-3.484 6.052 19.104Zm12.683-19.635c-.0803-.1555-.1905-.2935-.3244-.4061-.1339-.1126-.2887-.1975-.4556-.2499L40.0231 6.14l1.446 4.561c.088.01.176.028.263.056l12.518 3.965c.334.1049.6439.2749.9118.5003.268.2254.4886.5016.6492.8127.1623.3106.2615.6502.2917.9994.0302.3491-.0091.7008-.1157 1.0346l-6.092 19.228 2.038 6.434 9.335-29.464c.107-.34.076-.7-.088-1.017Zm-30.24 10.086c.5751.2963 1.0858.7038 1.5024 1.1989.4166.495.7308 1.0678.9246 1.6851.2054.6454.2659 1.3283.1772 1.9998-.0886.6715-.3243 1.3152-.6902 1.8852l-3.213 5.021c-.2495.3882-.5922.7076-.997.9292-.4048.2215-.8586.338-1.32.3388-.354 0-.708-.068-1.04-.204l-5.519-2.254c-.6273-.2554-1.1906-.646-1.6497-1.144-.4591-.4979-.8027-1.091-1.0063-1.737-.1972-.6162-.2702-1.2653-.2148-1.9099.0555-.6445.2383-1.2717.5378-1.8451.2963-.5751.7038-1.0858 1.1989-1.5024.495-.4165 1.0678-.7308 1.6851-.9246 1.0678-.3352 2.2177-.2985 3.262.104.6217-.9308 1.5408-1.6231 2.607-1.964.6162-.1969 1.2653-.2697 1.9098-.2143.6445.0554 1.2716.2381 1.8452.5373Zm-.115 3.689c-.089-.283-.2332-.5455-.4242-.7724-.1911-.2269-.4252-.4137-.6888-.5496-.263-.1374-.5506-.2212-.8462-.2466-.2956-.0254-.5933.0081-.8758.0986-.3723.1166-.7078.3283-.9733.6142-.2655.2858-.4518.6359-.5407 1.0158-.054.2233-.1647.4289-.3214.5969-.1567.168-.3541.2928-.5731.3622-.219.0694-.4522.081-.6771.0339-.2248-.0471-.4337-.1515-.6064-.303-.2917-.2592-.6458-.4379-1.0276-.5185-.3817-.0807-.7779-.0605-1.1494.0585-.2831.0892-.5456.2337-.7723.4251-.2268.1914-.4133.4259-.5487.6899-.1374.263-.2212.5506-.2466.8462-.0254.2956.0081.5932.0986.8758.175.553.585.997 1.123 1.217l5.518 2.254c.0183.008.0391.0087.058.002.0185-.0056.0345-.0176.045-.034l3.213-5.022c.314-.49.393-1.088.217-1.642l-.001-.002Zm13.347 13.907c.1067.3336.1462.6851.1161 1.034-.03.349-.129.6885-.2911.999-.1606.3114-.3813.5879-.6494.8135-.2681.2255-.5783.3957-.9126.5005l-21.195 6.715c-.6742.2122-1.4051.1486-2.0324-.177-.6274-.3256-1.1001-.8865-1.3146-1.56L8.01306 18.07c-.10682-.3338-.14636-.6854-.11632-1.0345.03004-.3492.12906-.6889.29132-.9995.16056-.3111.38117-.5873.64911-.8127.26793-.2254.57786-.3954.91189-.5003L30.9451 8.009c.6743-.21281 1.4055-.14945 2.0331.17619.6277.32564 1.1006.88696 1.3149 1.56081l9.879 31.186Zm-2.542.805-9.88-31.186-9.772 3.094-11.425 3.619 9.88 31.186 21.197-6.713Z" fill="#3172B9"/></g><defs><clipPath id="a"><path fill="#fff" d="M0 0h64v64H0z"/></clipPath></defs></svg>