<svg width="65" height="65" fill="none" xmlns="http://www.w3.org/2000/svg"><g clip-path="url(#a)"><path d="M63.131 51.506c1.1959 1.1985 1.8675 2.8225 1.8675 4.5155 0 1.6931-.6716 3.317-1.8675 4.5155L60.54 63.13c-.5918.5949-1.2958 1.0665-2.0711 1.3875-.7754.321-1.6067.485-2.4459.4825-.839.0024-1.6701-.1616-2.4453-.4826-.7752-.321-1.479-.7925-2.0707-1.3874L30.988 42.613l-2.862 2.862c.0768.922-.049 1.8496-.3686 2.7178-.3196.8682-.8252 1.656-1.4814 2.3082l-2.726 2.726c-.5917.5948-1.2955 1.0664-2.0707 1.3873-.7751.321-1.6063.4851-2.4453.4827-.8388.0023-1.6698-.1618-2.4448-.4828-.775-.321-1.4786-.7925-2.0702-1.3872L1.86503 40.575C.66925 39.3767-.00231934 37.7529-.00231934 36.06c0-1.6929.67156934-3.3166 1.86734934-4.515l2.726-2.726c.65223-.6561 1.44004-1.1617 2.30825-1.4813.8682-.3195 1.79579-.4454 2.71775-.3687L26.97 9.61902c-.0747-.92133.0519-1.8479.371-2.71544.3191-.86753.8231-1.65526 1.477-2.30856l2.725-2.725c.5917-.59463 1.2953-1.066062 2.0703-1.38704.775-.320977 1.6059-.48512761 2.4447-.48295879 1.706 0 3.31.66399979 4.516 1.86999879L53.227 14.522c1.1956 1.1985 1.867 2.8222 1.867 4.515 0 1.6928-.6714 3.3166-1.867 4.515l-2.725 2.726c-.6523.6562-1.4403 1.1618-2.3087 1.4814-.8684.3196-1.7961.4454-2.7183.3686l-2.862 2.862 20.518 20.516ZM31.164 35.784l4.619-4.619 3.46-3.46 5.155-5.154.4.4c.328.328.758.492 1.188.492.43 0 .86-.164 1.189-.492l2.725-2.725c.1561-.156.2798-.3412.3643-.545.0844-.2039.1279-.4223.1279-.643 0-.2206-.0435-.4391-.1279-.6429-.0845-.2039-.2082-.3891-.3643-.5451L37.246 5.19702c-.1559-.15618-.341-.28003-.5449-.36446-.2039-.08443-.4224-.12777-.6431-.12754-.43 0-.86.164-1.188.492l-2.726 2.725c-.1561.15602-.28.3413-.3646.54523-.0845.20393-.128.42252-.128.64327 0 .22076.0435.43935.128.64328.0846.20393.2085.3892.3646.5452l.4.4-21.85 21.847-.4-.4c-.1559-.1562-.34104-.28-.54491-.3644-.20386-.0845-.4224-.1278-.64306-.1276-.43 0-.86.164-1.188.492l-2.725 2.724c-.15602.156-.27978.3412-.36422.5451-.08444.2038-.1279.4223-.1279.6429 0 .2207.04346.4391.1279.643.08444.2038.2082.389.36422.545L17.846 49.9c.328.328.758.492 1.188.492.43 0 .86-.164 1.189-.492l2.725-2.725c.1562-.156.2801-.3413.3646-.5452.0845-.2039.1281-.4225.1281-.6433 0-.2207-.0436-.4393-.1281-.6432-.0845-.204-.2084-.3893-.3646-.5453l-.4-.4 5.155-5.154 3.461-3.46Zm28.64 19.05L39.285 34.317l-4.97 4.97 20.52 20.516c.327.328.758.492 1.188.492.43 0 .86-.164 1.188-.492l2.593-2.593c.1561-.156.2798-.3412.3643-.545.0844-.2039.1279-.4223.1279-.643 0-.2206-.0435-.4391-.1279-.6429-.0845-.2039-.2082-.3891-.3643-.5451Z" fill="#3172B9"/></g><defs><clipPath id="a"><path fill="#fff" d="M0 0h65v65H0z"/></clipPath></defs></svg>