<svg xmlns="http://www.w3.org/2000/svg" width="42" height="42" fill="none"><g clip-path="url(#a)"><path d="M40.1596 33.2808c.749.7744 1.1697 1.8237 1.1697 2.9177 0 1.094-.4207 2.1433-1.1697 2.9177l-1.6227 1.6755c-.3707.3844-.8116.6891-1.2973.8965-.4856.2075-1.0062.3134-1.5318.3118-.5255.0016-1.0461-.1044-1.5316-.3118-.4855-.2074-.9263-.5121-1.2969-.8965L20.0279 27.5346l-1.7925 1.8493c.048.5957-.0308 1.1951-.2309 1.7561-.2002.561-.5169 1.07-.9278 1.4914l-1.7074 1.7614c-.3706.3844-.8114.6891-1.2969.8965-.4855.2074-1.0061.3134-1.5315.3119-.5254.0014-1.0459-.1046-1.5312-.312-.4854-.2074-.9261-.5121-1.29666-.8964L1.7876 26.2177c-.74894-.7743-1.169558-1.8235-1.169558-2.9174 0-1.0939.420618-2.1431 1.169558-2.9174l1.70734-1.7614c.4085-.4239.90193-.7506 1.4457-.9571.54377-.2065 1.12474-.2878 1.70218-.2383L17.5113 6.21537c-.0468-.59533.0325-1.19403.2324-1.75459.1998-.56056.5155-1.06956.9251-1.49169l1.7067-1.76077c.3705-.38422.8113-.68884 1.2966-.89624.4854-.207401 1.0058-.31346769 1.5312-.3120663 1.0685 0 2.0731.4290463 2.8285 1.2083063l7.9248 8.17514c.7488.77444 1.1693 1.82354 1.1693 2.91734 0 1.0939-.4205 2.143-1.1693 2.9174l-1.7067 1.7614c-.4086.4241-.9022.7508-1.446.9573-.5439.2065-1.125.2877-1.7025.2381l-1.7926 1.8493 12.8508 13.2565ZM20.1381 23.122l2.893-2.9846 2.167-2.2357 3.2287-3.3303.2505.2585c.2055.2119.4748.3179.7441.3179s.5386-.106.7447-.3179l1.7067-1.7608c.0977-.1008.1753-.2205.2281-.3522.0529-.1317.0801-.2728.0801-.4154s-.0272-.2837-.0801-.4155c-.0528-.1317-.1304-.2513-.2281-.3521l-7.9254-8.17582c-.0976-.10092-.2136-.18095-.3413-.2355-.1277-.05456-.2646-.08256-.4028-.08241-.2693 0-.5386.10597-.7441.31791l-1.7073 1.76076c-.0978.10082-.1754.22053-.2283.3523-.053.13177-.0802.27302-.0802.41566s.0272.28388.0802.41565c.0529.13177.1305.25149.2283.3523l.2505.25846L7.31737 21.0297l-.25053-.2584c-.09763-.1009-.21362-.181-.34131-.2355-.12768-.0546-.26455-.0826-.40276-.0824-.26931 0-.53863.1059-.74406.3179l-1.70672 1.7601c-.09772.1008-.17524.2205-.22812.3522-.05289.1317-.08011.2729-.08011.4154 0 .1426.02722.2838.08011.4155.05288.1317.1304.2514.22812.3522l7.92481 8.1764c.2054.2119.4747.3179.7441.3179.2693 0 .5386-.106.7447-.3179l1.7067-1.7608c.0978-.1008.1754-.2205.2283-.3523.053-.1317.0802-.273.0802-.4156 0-.1427-.0272-.2839-.0802-.4157-.0529-.1318-.1305-.2515-.2283-.3523l-.2505-.2584 3.2286-3.3303 2.1677-2.2357Zm17.9378 12.3092L25.2244 22.1741l-3.1128 3.2114L34.9637 38.642c.2048.2119.4748.3179.7441.3179s.5386-.106.744-.3179l1.6241-1.6755c.0977-.1008.1752-.2205.2281-.3522s.0801-.2729.0801-.4155c0-.1425-.0272-.2837-.0801-.4154-.0529-.1317-.1304-.2514-.2281-.3522Z" fill="#3172B9"/></g><defs><clipPath id="a"><path fill="#fff" d="M0 0h42v42H0z"/></clipPath></defs></svg>