<svg width="68" height="66" fill="none" xmlns="http://www.w3.org/2000/svg"><g clip-path="url(#a)"><path d="M50.393.00398661C40.438-.212013 32.146 7.63799 31.9 17.512l-.124 4.971c-.034 1.356 1.057 2.49 2.424 2.52 1.367.029 2.513-1.056 2.546-2.412l.125-4.971c.178-7.149 6.191-12.84201 13.4-12.68601 7.207.157 12.93 6.10401 12.752 13.25301-.179 7.148-6.192 12.842-13.4 12.685L18.5 30.197C8.54499 29.981.252987 37.831.00698678 47.705-.240013 57.579 7.65099 65.78 17.607 65.995c9.955.216 18.247-7.633 18.493-17.507l.123-4.916c.034-1.357-1.057-2.49-2.424-2.52-1.367-.03-2.513 1.056-2.547 2.412l-.123 4.916c-.178 7.149-6.191 12.842-13.4 12.686-7.207-.157-12.93001-6.104-12.75201-13.253.179-7.149 6.19201-12.842 13.40001-12.686l31.123.675c9.956.216 18.247-7.633 18.494-17.507C68.24 8.41999 60.349.219987 50.394.00498661l-.001-.001Z" fill="#3172B9"/></g><defs><clipPath id="a"><path fill="#fff" d="M0 0h68v66H0z"/></clipPath></defs></svg>