<svg width="86" height="64" fill="none" xmlns="http://www.w3.org/2000/svg"><g clip-path="url(#a)"><path d="M79.622 20.272c0 2.064-.306 4.08-.896 5.998h5.142c1.177 0 2.132.957 2.132 2.136 0 1.18-.955 2.135-2.132 2.135H77.47c-.202 0-.397-.028-.582-.08-.8827 1.5133-1.9569 2.9065-3.196 4.145l-28.72 28.768c-.1979.1985-.433.356-.6918.4635-.2589.1074-.5364.1627-.8167.1627s-.5578-.0553-.8167-.1627c-.2588-.1075-.4939-.265-.6918-.4635L13.233 34.606c-1.0367-1.0372-1.9578-2.184-2.747-3.42-.171.044-.35.068-.536.068H2.132c-.28024-.0003-.55769-.0557-.81649-.1632-.25881-.1075-.493915-.2649-.691889-.4632-.197975-.1984-.354944-.4338-.461945-.6928-.1070005-.259-.16193783-.5365-.16167506-.8168 0-1.18.95500006-2.136 2.13199906-2.136h6.315c-2.482-7.121-.887-15.364 4.786-21.04399 1.8736-1.88786 4.1033-3.38488 6.56-4.40421C22.2497.514473 24.8843-.00687342 27.544.00001152c5.406 0 10.49 2.10899848 14.312 5.93799848l1.607 1.609 1.607-1.61c1.8738-1.8878 4.1037-3.3847 6.5606-4.40386C54.0874.513987 56.7222-.0071368 59.382.00001152 62.0417-.00681806 64.6763.514553 67.133 1.53388c2.4566 1.01933 4.6864 2.51632 6.56 4.40413 1.8861 1.87919 3.3811 4.11349 4.3988 6.57369 1.0176 2.4603 1.5377 5.0979 1.5302 7.7603ZM70.678 8.95701c-1.4793-1.49004-3.2397-2.67153-5.1791-3.47593-1.9394-.80441-4.0193-1.21572-6.1189-1.21007-2.0993-.00538-4.1788.40605-6.1178 1.21045-1.9391.8044-3.6992 1.98575-5.1782 3.47555L44.969 12.077c-.1977.1984-.4326.3559-.6913.4633-.2587.1075-.5361.1628-.8162.1628s-.5575-.0553-.8162-.1628c-.2587-.1074-.4936-.2649-.6913-.4633L38.84 8.95701c-1.4792-1.48983-3.2395-2.67119-5.1787-3.47559-1.9392-.80439-4.0189-1.21581-6.1183-1.21041-2.0993-.00555-4.1788.40581-6.1179 1.21022-1.9391.80441-3.6992 1.98585-5.1781 3.47578C11.173 14.04 10.232 21.718 13.425 27.763h14.811l5.302-11.284c.245-.52.739-.845 1.353-.816.2807.0134.5511.1096.7771.2766.2261.1669.3976.3971.4929.6614l7.89 21.886 6.491-18.319c.0944-.2673.2666-.5002.4945-.6688.2278-.1686.5009-.2651.7841-.2771.2832-.0121.5636.0609.8049.2095.2414.1486.4328.3661.5495.6244l3.176 6.995h17.501c2.76-5.926 1.702-13.209-3.175-18.09399h.001ZM16.248 31.586l27.215 27.258 27.215-27.258c.5473-.548 1.0543-1.1348 1.517-1.756H55.736c-.557 0-1.363-.257-1.593-.766l-2.097-4.62-6.642 18.745c-.2.566-.734.946-1.335.947h-.003c-.6 0-1.133-.376-1.337-.94l-8.076-22.398-4.227 8.996c-.234.498-.436.747-.987.747H15.293c.3.36.619.708.955 1.045Z" fill="#3172B9"/></g><defs><clipPath id="a"><path fill="#fff" d="M0 0h86v64H0z"/></clipPath></defs></svg>