<svg width="14" height="17" fill="none" xmlns="http://www.w3.org/2000/svg"><g clip-path="url(#a)"><path d="M7.19001 16.967c-.12321.0439-.25779.0439-.381 0C-.170991 14.498-.0619908 8.64901.0180092 4.37701c.008-.459.016-.893.016-1.312-.0013327-.15631.0594172-.30676.1689118-.41831.109494-.11156.258783-.17511.415088-.17669 2.494001 0 4.392001-.732 5.975001-2.302.05332-.053487.11668-.0959249.18643-.124881.06976-.0289562.14454-.04386142.22007-.04386142.07553 0 .15031.01490522.22006.04386142.06976.0289561.13312.071394.18644.124881 1.583 1.57 3.48199 2.302 5.97699 2.302.1561.00185.3052.06551.4145.17704.1092.11153.1698.26182.1685.41796 0 .42.008.853.017 1.312.08 4.271.189 10.12099-6.79199 12.58999h-.001ZM12.817 4.40001c-.005-.258-.01-.508-.012-.752-2.338-.101-4.20599-.823-5.80499-2.245-1.6 1.422-3.467 2.144-5.803 2.245l-.013.752c-.08 4.294-.17 9.15499 5.816 11.37399C12.987 13.554 12.897 8.69401 12.816 4.40001h.001Zm-2.98399 2.033c.10959.11274.17089.26377.17089.421 0 .15723-.0613.30826-.17089.421l-3.227 3.29199c-.05352.0553-.11762.0993-.18849.1293-.07086.0301-.14704.0456-.22401.0456-.07697 0-.15315-.0155-.22402-.0456-.07086-.03-.13496-.074-.18848-.1293l-1.614-1.64699c-.10983-.11262-.1713-.2637-.1713-.421 0-.15731.06147-.30838.1713-.421.05359-.05519.11772-.09906.18857-.12902.07085-.02996.147-.04539.22393-.04539s.15307.01543.22393.04539c.07085.02996.13498.07383.18857.12902l1.201 1.226 2.815-2.872c.05359-.05519.11772-.09906.18857-.12902.07086-.02996.147-.04539.22393-.04539s.15307.01543.22393.04539c.07085.02996.13498.07383.18857.12902v.001Z" fill="#787878"/></g><defs><clipPath id="a"><path fill="#fff" d="M0 0h14v17H0z"/></clipPath></defs></svg>