<svg width="115" height="44" fill="none" xmlns="http://www.w3.org/2000/svg"><g clip-path="url(#a)"><path d="M-.00100708 25.44V.325998H3.22399V22.174H12.137v3.264l-12.13800708.002ZM21.009.325998V25.438h-3.225V.326998l3.225-.001ZM49.003 3.763c2.493 2.511 3.74 5.54 3.74 9.088 0 3.546-1.247 6.576-3.74 9.088-2.493 2.51-5.5 3.766-9.022 3.766-3.522 0-6.529-1.255-9.023-3.766-2.493-2.512-3.739-5.542-3.739-9.088 0-3.548 1.246-6.577 3.74-9.088 2.493-2.512 5.5-3.76700162 9.022-3.76700162 3.522 0 6.53 1.25500162 9.022 3.76700162Zm-9.022-.487c-2.629 0-4.87.934-6.724 2.802-1.854 1.868-2.781 4.125-2.781 6.773 0 2.646.93 4.907 2.789 6.78 1.86 1.873 4.098 2.81 6.716 2.81 2.628 0 4.87-.937 6.724-2.81s2.782-4.134 2.782-6.78c0-2.648-.928-4.905-2.782-6.773-1.854-1.868-4.096-2.802-6.724-2.802ZM58.64.326998h2.945L71.869 18.25V.326998h3.242V25.439H72.29L61.865 7.295V25.44H58.64V.326998Zm26.278 0V25.439h-3.226V.326998h3.226ZM110.808 19.459l2.415 2.182c-2.95 2.71-6.072 4.065-9.365 4.065-3.522 0-6.524-1.25-9.007-3.75-2.483-2.502-3.724-5.526-3.724-9.073 0-3.536 1.241-6.56 3.724-9.072C97.334 1.3 100.336.0439984 103.858.0439984c3.293 0 6.415 1.3560016 9.365 4.0650016l-2.415 2.214c-2.223-1.989-4.54-2.983-6.95-2.983-2.608 0-4.839.932-6.693 2.794-1.855 1.862-2.782 4.112-2.782 6.749 0 2.647.927 4.902 2.782 6.765 1.854 1.862 4.085 2.793 6.693 2.793 2.41 0 4.727-.993 6.95-2.982ZM52.977 40.864h3.345v.673h-4.075V34.31h.73v6.554Zm4.56-1.532c.021.238.078.463.173.674.1797.4064.5056.7305.913.908.203.09.422.133.659.133.358 0 .667-.083.927-.25.26-.167.458-.359.593-.577l.517.43c-.284.36-.596.618-.938.775-.3453.1572-.7206.2374-1.1.235-.35 0-.677-.063-.978-.189-.3-.126-.559-.3-.775-.525-.2197-.2308-.3935-.5012-.512-.797-.1273-.3182-.1912-.6583-.188-1.001 0-.36.061-.694.183-1 .122-.306.29-.572.507-.796.216-.225.47-.4.76-.527.29-.125.604-.188.943-.188.358 0 .679.065.962.194.284.13.522.301.715.516.193.214.34.466.441.755.102.29.153.597.153.924v.306h-3.955Zm3.225-.551c0-.456-.136-.825-.406-1.108-.27-.283-.649-.424-1.135-.424-.216 0-.426.043-.629.127-.203.086-.38.2-.532.343-.1501.1401-.2737.3061-.365.49-.0899.1773-.1368.3732-.137.572h3.204Zm2.31 3.716c.196.265.451.478.766.638.314.16.664.24 1.049.24.337 0 .625-.05.861-.148.2201-.0872.4165-.2253.573-.403.146-.17.25-.37.315-.597.063-.228.095-.472.095-.73v-.858h-.02c-.216.327-.48.558-.79.694-.3102.136-.6454.2055-.984.204-.344 0-.667-.061-.967-.183-.2921-.1165-.559-.2883-.786-.506-.223-.215-.399-.47-.527-.77-.1302-.3067-.1958-.6369-.193-.97 0-.347.061-.671.183-.97.122-.3.288-.562.502-.787.213-.224.466-.399.76-.526.293-.125.617-.188.968-.188.142 0 .292.013.45.04.3464.0602.6722.2059.948.424.156.12.301.27.437.455h.02v-.797h.668v4.738c0 .258-.032.534-.095.826-.065.293-.19.562-.376.807-.2067.2623-.4722.4722-.775.613-.332.163-.764.245-1.298.245-.472 0-.895-.078-1.267-.236-.3856-.1661-.731-.413-1.013-.724l.496-.531Zm.122-3.41c-.0006.4803.1826.9425.512 1.292.159.166.344.3.557.397.213.1.445.148.695.148.4749.0029.9325-.1781 1.277-.505.169-.16.3-.352.39-.577.092-.224.134-.476.127-.755 0-.252-.04-.488-.122-.71-.078-.2159-.1987-.4139-.355-.582-.1599-.1699-.3529-.3053-.567-.398-.2368-.1015-.4924-.152-.75-.148-.25 0-.482.05-.695.148-.3223.1484-.5948.387-.7845.6869-.1896.2999-.2885.6483-.2845 1.0031Zm8.748-.48v-.122c0-.824-.405-1.236-1.216-1.236-.555 0-1.038.187-1.45.562l-.405-.48c.446-.463 1.115-.694 2.006-.694.23 0 .452.034.665.102.212.067.396.172.552.312.155.14.28.314.375.525.095.21.142.464.142.756v2.133c0 .184.009.376.025.577.017.201.036.366.056.495h-.649c-.0211-.1249-.0361-.2507-.045-.377-.0098-.1328-.0148-.2659-.015-.399h-.02c-.197.321-.428.55-.695.69-.267.14-.594.21-.979.21-.21 0-.411-.03-.608-.088-.1893-.0543-.3664-.1443-.522-.265-.1601-.1228-.2889-.2816-.3761-.4635s-.1304-.3818-.1259-.5835c0-.388.1-.693.3-.914.205-.2248.4627-.3949.75-.495.3-.108.621-.176.963-.204.341-.027.654-.04.937-.04l.335-.001Zm-.344.551c-.17 0-.38.01-.634.026-.2469.016-.4915.0572-.73.123-.2183.0571-.4221.1597-.598.301-.0821.068-.1473.1542-.1903.2517-.0431.0976-.0628.2038-.0577.3103 0 .156.032.29.096.403.064.112.15.203.258.275.108.071.228.123.36.154.132.03.266.045.4.045.243 0 .455-.04.634-.123.179-.081.33-.191.45-.33.1237-.1423.2158-.3094.27-.49.057-.188.086-.388.086-.599v-.347h-.344Zm3.385 2.38h-.669v-7.72h.669v7.72Zm8.068-6.034c-.317-.47-.78-.705-1.389-.705-.1883-.0003-.3758.0256-.557.077-.1762.0484-.3424.1277-.491.234-.156.1136-.2816.2639-.3657.4377-.0841.1737-.124.3655-.1163.5583 0 .326.092.581.274.76.182.181.408.33.679.445.27.115.566.22.887.311.32.092.617.215.886.368.271.153.498.355.68.607.182.252.273.596.273 1.031 0 .327-.07.622-.207.883-.1339.2563-.3207.4812-.548.66-.226.176-.48.312-.76.407-.2722.094-.5581.1423-.846.143-.44 0-.857-.083-1.252-.25-.4061-.1751-.7555-.4597-1.009-.822l.67-.48c.154.266.37.478.646.639.276.16.603.24.98.24.182 0 .364-.03.546-.087.182-.058.345-.143.49-.256.144-.111.264-.25.359-.413.094-.164.14-.35.14-.562 0-.251-.052-.46-.156-.627-.1057-.1686-.2474-.3117-.415-.419-.1838-.1177-.3817-.2118-.589-.28-.2258-.077-.4521-.1524-.679-.226-.2308-.0736-.4577-.1587-.68-.255-.2125-.0909-.4103-.2129-.587-.362-.1763-.1521-.3178-.3404-.415-.552-.105-.22-.158-.498-.158-.832 0-.347.066-.65.198-.908.1256-.2512.3057-.4712.527-.644.22-.17.468-.296.745-.378.277-.081.561-.122.851-.122.406 0 .774.065 1.106.194.33.13.638.357.922.685l-.639.5Zm6.792 3.644c0 .361-.063.694-.188 1-.1188.298-.296.5693-.521.798-.2274.2267-.4981.4052-.796.525-.308.126-.648.19-1.02.19-.364 0-.7-.064-1.008-.19-.2977-.1196-.5682-.2981-.795-.525-.2255-.2281-.403-.4991-.522-.797-.1276-.3181-.1915-.6582-.188-1.001 0-.36.062-.694.188-1 .124-.306.298-.572.522-.797.222-.224.487-.399.795-.526.3209-.1278.6636-.1917 1.009-.188.371 0 .71.063 1.019.188.307.127.572.302.796.526.222.225.396.49.52.796.126.307.189.64.189 1v.001Zm-.73 0c.0022-.2539-.0408-.5062-.127-.745-.1178-.3454-.3433-.644-.6433-.8517-.3001-.2077-.6589-.3137-1.0237-.3023-.277 0-.526.05-.745.148-.22.1-.406.234-.558.403-.152.171-.27.372-.355.603-.084.231-.127.48-.127.745 0 .266.043.514.127.746.085.231.203.432.355.601.152.172.338.306.558.404.22.099.468.148.745.148.277 0 .525-.049.745-.148.22-.098.407-.232.562-.404.156-.169.276-.37.36-.601.085-.232.127-.48.127-.746Zm2.767 2.39h-.67v-7.72h.67v7.72Zm5.037 0c-.0129-.1277-.0209-.2557-.024-.384-.0042-.1276-.0061-.2553-.006-.383h-.02c-.074.13-.169.25-.284.358-.115.11-.243.202-.385.28-.142.079-.293.14-.451.185-.16.044-.316.066-.471.066-.609 0-1.059-.162-1.349-.485-.29-.323-.435-.784-.435-1.383v-3.033h.669v2.645c0 .266.02.5.06.704.041.205.11.376.209.515.097.14.229.246.395.317.165.071.372.107.623.107.033 0 .128-.013.284-.04.1787-.0379.3468-.1151.492-.226.171-.122.325-.305.46-.55.135-.246.203-.586.203-1.022v-2.45h.669v3.727c.0075.3511.0245.7019.051 1.052h-.69Zm4.664-4.167h-1.369v2.819c0 .177.017.321.051.433.034.114.081.2.142.261.06.0609.135.1047.218.127.084.025.177.036.279.036.114 0 .233-.017.355-.051.12-.034.233-.078.334-.132l.03.622c-.41.1771-.866.2202-1.302.123-.14-.0345-.27-.1013-.38-.195-.1229-.1057-.22-.2381-.284-.387-.075-.163-.112-.378-.112-.643v-3.013H98.54v-.612h1.003v-1.348h.67v1.348h1.368v.612Zm1.885-2.449c0 .143-.05.26-.152.352-.09.0867-.209.1357-.334.137-.125-.001-.245-.0501-.335-.137-.05-.044-.089-.0983-.115-.1591-.027-.0608-.04-.1266-.038-.1929 0-.143.051-.26.153-.352.09-.0874.21-.1368.335-.138.121 0 .232.046.334.138.101.091.152.209.152.352Zm-.152 6.615h-.67V36.76h.67v4.777Zm6.406-2.39c0 .362-.063.695-.187 1.002-.126.306-.3.571-.522.797-.227.2266-.498.4052-.796.525-.324.1297-.671.1942-1.02.19-.364 0-.7-.064-1.007-.19-.298-.1196-.569-.2981-.796-.525-.225-.2286-.402-.4995-.522-.797-.128-.3181-.191-.6582-.188-1.001 0-.36.062-.694.188-1 .125-.306.299-.572.522-.797.222-.224.488-.399.796-.526.32-.1279.663-.1917 1.008-.188.372 0 .71.063 1.019.188.307.127.572.302.796.526.222.225.396.49.522.796.124.307.187.64.187 1Zm-.73 0c.002-.2535-.041-.5053-.126-.744-.079-.2226-.202-.4275-.36-.603-.158-.1716-.35-.3088-.563-.403-.235-.1019-.489-.1523-.745-.148-.277 0-.526.05-.745.148-.22.1-.405.234-.558.403-.155.1767-.275.3813-.354.603-.085.231-.127.48-.127.745 0 .266.042.514.127.746.084.231.203.432.354.601.153.172.338.306.558.404.22.099.468.148.745.148.277 0 .525-.049.745-.148.22-.098.407-.232.562-.404.156-.169.276-.37.36-.601.085-.232.127-.48.127-.746v-.001Zm2.584-2.388c.014.13.022.257.026.383.003.126.005.254.005.383h.02c.074-.129.169-.248.284-.358.238-.219.525-.3781.837-.464.158-.044.315-.066.47-.066.609 0 1.058.161 1.349.485.29.323.435.784.435 1.383v3.032h-.669v-2.644c0-.531-.09-.937-.274-1.22-.182-.283-.52-.424-1.013-.424-.095.0087-.189.0224-.283.041-.179.0373-.347.1138-.492.224-.193.147-.351.3357-.461.552-.135.245-.203.585-.203 1.021v2.45h-.669v-3.726c-.008-.3511-.025-.7019-.051-1.052h.689Zm-68.592 1.967H-.00000708V37.38H42.983l-.001 1.346Z" fill="#3172B9"/></g><defs><clipPath id="a"><path fill="#fff" d="M0 0h115v44H0z"/></clipPath></defs></svg>