<svg width="45" height="45" fill="none" xmlns="http://www.w3.org/2000/svg"><path d="M19.279 14.986a3.359 3.359 0 1 0 6.718 0 3.359 3.359 0 0 0-6.718 0Z" fill="#CACACA"/><path fill-rule="evenodd" clip-rule="evenodd" d="M22.5 45C34.926 45 45 34.926 45 22.5S34.926 0 22.5 0 0 10.074 0 22.5 10.074 45 22.5 45Zm-7.988-30.014a8.125 8.125 0 1 1 16.251 0 8.125 8.125 0 0 1-16.25 0Zm16.3 12.305c-.103.083-2.053 1.623-5.306 2.286l4.91 4.866a2.21 2.21 0 1 1-3.122 3.127l-4.766-4.642-4.33 4.612a2.202 2.202 0 0 1-1.59.676 2.21 2.21 0 0 1-1.59-3.743l4.66-4.87c-3.344-.648-5.374-2.228-5.479-2.312a2.21 2.21 0 0 1 2.765-3.447c.02.016 2.143 1.61 5.564 1.613 3.42-.002 5.5-1.597 5.52-1.613a2.21 2.21 0 0 1 2.764 3.447Z" fill="#CACACA"/></svg>