<svg width="45" height="45" fill="none" xmlns="http://www.w3.org/2000/svg"><path d="M22.5 0C10.074 0 0 10.074 0 22.5S10.074 45 22.5 45 45 34.926 45 22.5 34.926 0 22.5 0Zm11.413 24.933c1.049 1.025 2.158 1.989 3.1 3.119.417.5.81 1.017 1.11 1.598.427.83.04 1.739-.701 1.788l-4.61-.001c-1.19.098-2.138-.382-2.937-1.196-.637-.648-1.229-1.341-1.843-2.012-.25-.275-.515-.534-.83-.738-.628-.41-1.174-.284-1.534.373-.367.668-.451 1.408-.486 2.151-.05 1.087-.378 1.371-1.468 1.422-2.33.11-4.542-.244-6.597-1.419-1.813-1.036-3.216-2.499-4.439-4.155-2.38-3.228-4.204-6.77-5.843-10.415-.368-.821-.099-1.26.807-1.277 1.504-.03 3.009-.026 4.513-.002.613.01 1.018.36 1.253.938.813 2 1.81 3.904 3.059 5.669.332.47.672.938 1.156 1.27.534.367.94.245 1.193-.35.16-.38.23-.785.265-1.19.12-1.392.134-2.782-.073-4.167-.129-.867-.616-1.427-1.48-1.59-.44-.084-.376-.247-.162-.498.372-.435.72-.704 1.415-.704h5.208c.821.16 1.005.529 1.117 1.356l.004 5.787c-.01.32.16 1.269.735 1.478.46.152.765-.217 1.04-.509 1.249-1.325 2.139-2.89 2.936-4.508.351-.714.655-1.453.95-2.194.218-.547.56-.816 1.177-.807l5.015.006c.148 0 .298.001.444.027.846.144 1.077.508.816 1.332-.412 1.296-1.212 2.375-1.993 3.457-.838 1.158-1.732 2.276-2.561 3.44-.763 1.063-.702 1.598.244 2.521Z" fill="#CACACA"/></svg>