<svg width="40" height="40" fill="none" xmlns="http://www.w3.org/2000/svg"><g clip-path="url(#a)"><path d="M20 40c11.046 0 20-8.954 20-20S31.046 0 20 0 0 8.954 0 20s8.954 20 20 20z" fill="#26A5E4"/><path fill-rule="evenodd" clip-rule="evenodd" d="m9.053 19.789 11.664-5.024c5.554-2.31 6.708-2.712 7.46-2.725.166-.003.536.038.775.233.203.164.258.386.285.541.027.156.06.51.033.788-.3 3.162-1.603 10.837-2.266 14.379-.28 1.498-.832 2-1.366 2.05-1.162.107-2.044-.767-3.169-1.505l-4.463-2.998c-1.975-1.301-.695-2.016.43-3.185.295-.306 5.413-4.96 5.512-5.383.012-.053.023-.25-.093-.354-.117-.104-.29-.068-.415-.04-.176.04-2.988 1.899-8.436 5.576-.798.548-1.52.816-2.169.802-.714-.016-2.087-.404-3.109-.736-1.252-.407-2.248-.623-2.16-1.314.044-.36.54-.728 1.487-1.105z" fill="#fff"/></g><defs><clippath id="a"><path fill="#fff" d="M0 0h40v40H0z"/></clippath></defs></svg>