<svg width="173" height="40" fill="none" xmlns="http://www.w3.org/2000/svg"><path d="M2.78965 32.7802.289746 29.1348H2.09561l1.69804 2.6077 1.71153-2.6077h1.79238l-2.50664 3.6454 2.63467 3.8071H5.6332l-1.83955-2.7896-1.83281 2.7896H.168457l2.621193-3.8071ZM7.60078 29.1348h1.725l1.51612 4.2249c.2291.6019.3818 1.1679.4582 1.698h.0539c.0404-.2471.1146-.5458.2224-.8962.1078-.3549.6783-2.0304 1.7115-5.0267h1.7115l-3.1872 8.443c-.5795 1.5498-1.5453 2.3247-2.89745 2.3247-.35039 0-.6918-.0381-1.02422-.1145v-1.2533c.23808.0539.50986.0808.81533.0808.76367 0 1.30044-.4425 1.61044-1.3274l.2763-.7008-2.99182-7.4525ZM23.2808 39.222h-1.4757v-2.6347h-5.1076v2.6347h-1.4622v-3.8611h.6064c.5301-.7591.9501-1.6755 1.2601-2.7492.3144-1.0781.5008-2.2371.5592-3.4769h4.5282v6.2261h1.0916v3.8611Zm-2.6482-3.8611v-5.0132h-1.6037c-.0853.9253-.265 1.8373-.5391 2.7357-.2695.8984-.5997 1.6576-.9905 2.2775h3.1333ZM31.2724 32.8476c0 1.2173-.3122 2.1674-.9367 2.8503-.6244.6828-1.4936 1.0242-2.6077 1.0242-.6963 0-1.3117-.1573-1.8463-.4717-.5345-.3145-.9456-.7659-1.2331-1.3544-.2875-.5885-.4312-1.2713-.4312-2.0484 0-1.2084.3099-2.1518.9299-2.8301C25.7672 29.3392 26.6409 29 27.7685 29c1.0781 0 1.9316.3481 2.5605 1.0444.6289.6918.9434 1.6262.9434 2.8032Zm-5.4244 0c0 1.7205.6357 2.5807 1.907 2.5807 1.2578 0 1.8867-.8602 1.8867-2.5807 0-1.7026-.6334-2.5538-1.9002-2.5538-.6648 0-1.1477.2201-1.4487.6603-.2965.4402-.4448 1.0714-.4448 1.8935ZM36.7708 32.7532v-3.6184h1.4757v3.6184l2.8705-3.6184h1.6711l-2.9312 3.6049 3.194 3.8476h-1.7452l-3.0592-3.7802v3.7802h-1.4757v-3.7802l-3.0524 3.7802h-1.7385l3.1872-3.8476-2.9244-3.6049h1.6711l2.857 3.6184ZM47.4577 36.7221c-1.159 0-2.0664-.3369-2.7222-1.0108-.6514-.6783-.9771-1.6104-.9771-2.7964 0-1.2173.3032-2.1742.9097-2.8705C45.2745 29.3481 46.1078 29 47.168 29c.9838 0 1.7609.2987 2.3314.8962.5705.5975.8558 1.4195.8558 2.4662v.8558h-4.9661c.0224.7232.2178 1.2802.5862 1.6711.3684.3863.8872.5794 1.5565.5794.4403 0 .8491-.0404 1.2264-.1212.3818-.0854.7906-.2246 1.2264-.4178v1.287c-.3864.1842-.7772.3145-1.1725.3908-.3953.0764-.8468.1146-1.3544.1146Zm-.2897-6.5227c-.5032 0-.9075.1595-1.2129.4784-.301.319-.4807.7839-.5391 1.3949h3.3826c-.009-.6155-.1572-1.0804-.4447-1.3949-.2875-.3189-.6828-.4784-1.1859-.4784ZM55.1596 36.7221c-1.1276 0-1.9856-.328-2.5741-.9838-.5839-.6604-.8759-1.606-.8759-2.8368 0-1.2534.3054-2.2169.9164-2.8908C53.2414 29.3369 54.1286 29 55.2876 29c.7861 0 1.4936.146 2.1226.438l-.4785 1.2735c-.6693-.2605-1.2218-.3908-1.6576-.3908-1.2892 0-1.9339.8558-1.9339 2.5673 0 .8355.1595 1.4644.4785 1.8867.3234.4178.7951.6267 1.415.6267.7053 0 1.3724-.1752 2.0013-.5256v1.3813c-.283.1662-.5863.2853-.9097.3572-.319.0718-.7075.1078-1.1657.1078ZM64.5864 29.1348v1.2398h-2.4258v6.2127h-1.5902v-6.2127h-2.4258v-1.2398h6.4418ZM72.4904 31.0417c0 .8805-.5143 1.4128-1.543 1.597v.0539c.575.0674 1.0152.2493 1.3207.5458.3054.2965.4582.6805.4582 1.1522 0 .7053-.2696 1.2489-.8086 1.6307-.5346.3773-1.314.566-2.3382.566h-3.5578v-7.4525h3.5443c1.9496 0 2.9244.6356 2.9244 1.9069Zm-1.3881 3.2546c0-.3594-.1392-.6132-.4177-.7614-.2785-.1528-.6963-.2291-1.2533-.2291h-1.8261v2.109h1.8665c1.0871 0 1.6306-.3728 1.6306-1.1185Zm-.1954-3.1198c0-.2965-.1168-.5099-.3504-.6402-.2291-.1347-.5727-.2021-1.0309-.2021h-1.9204v1.7924h1.6845c.5301 0 .9322-.0674 1.2062-.2022.274-.1392.411-.3886.411-.7479ZM77.6183 36.7221c-1.159 0-2.0664-.3369-2.7223-1.0108-.6514-.6783-.9771-1.6104-.9771-2.7964 0-1.2173.3033-2.1742.9097-2.8705C75.4351 29.3481 76.2684 29 77.3285 29c.9838 0 1.761.2987 2.3315.8962.5705.5975.8557 1.4195.8557 2.4662v.8558h-4.9661c.0225.7232.2179 1.2802.5862 1.6711.3684.3863.8872.5794 1.5566.5794.4402 0 .849-.0404 1.2264-.1212.3818-.0854.7906-.2246 1.2263-.4178v1.287c-.3863.1842-.7771.3145-1.1724.3908-.3954.0764-.8468.1146-1.3544.1146Zm-.2898-6.5227c-.5031 0-.9074.1595-1.2129.4784-.3009.319-.4806.7839-.539 1.3949h3.3826c-.009-.6155-.1572-1.0804-.4447-1.3949-.2875-.3189-.6829-.4784-1.186-.4784ZM83.8983 29.1348v2.9918h3.5107v-2.9918h1.5835v7.4525H87.409v-3.2142h-3.5107v3.2142h-1.5835v-7.4525h1.5835ZM92.8468 29.1348v2.9918h3.5106v-2.9918h1.5835v7.4525h-1.5835v-3.2142h-3.5106v3.2142h-1.5835v-7.4525h1.5835ZM104.875 36.5873l-.317-1.0377h-.054c-.359.4537-.721.7637-1.085.9299-.364.1617-.831.2426-1.401.2426-.733 0-1.305-.1977-1.719-.593-.4085-.3953-.6129-.9546-.6129-1.6778 0-.7682.2853-1.3477.8559-1.7385.57-.3908 1.44-.6042 2.608-.6401l1.287-.0405v-.3975c0-.4762-.113-.8311-.337-1.0647-.22-.2381-.564-.3571-1.031-.3571-.382 0-.748.0561-1.099.1684-.35.1124-.687.2449-1.01.3976l-.512-1.132c.404-.2112.846-.3706 1.327-.4784.481-.1123.934-.1685 1.361-.1685.948 0 1.662.2066 2.143.6199.485.4133.728 1.0624.728 1.9474v5.02h-1.132Zm-2.359-1.0781c.575 0 1.036-.1595 1.382-.4784.35-.3235.525-.7749.525-1.3544v-.6469l-.957.0404c-.745.027-1.289.1528-1.63.3774-.337.2201-.506.5592-.506 1.0174 0 .3325.099.5908.297.7749.197.1797.494.2696.889.2696ZM108.978 36.5873h-1.772l2.075-3.0524c-.503-.1438-.898-.3998-1.185-.7682-.288-.3729-.432-.8333-.432-1.3813 0-.7053.252-1.2556.755-1.6509.503-.3998 1.19-.5997 2.062-.5997h3.396v7.4525h-1.59v-2.8705h-1.503l-1.806 2.8705Zm.229-5.1885c0 .3819.144.6694.432.8625.292.1887.682.283 1.172.283h1.476v-2.2101h-1.725c-.432 0-.766.0921-1.004.2762-.234.1842-.351.447-.351.7884ZM124.544 29.1348v1.2398h-3.235v6.2127h-1.583v-7.4525h4.818ZM130.642 36.5873l-.317-1.0377h-.054c-.359.4537-.721.7637-1.085.9299-.364.1617-.831.2426-1.401.2426-.732 0-1.305-.1977-1.718-.593-.409-.3953-.614-.9546-.614-1.6778 0-.7682.286-1.3477.856-1.7385.571-.3908 1.44-.6042 2.608-.6401l1.287-.0405v-.3975c0-.4762-.112-.8311-.337-1.0647-.22-.2381-.564-.3571-1.031-.3571-.382 0-.748.0561-1.098.1684-.351.1124-.688.2449-1.011.3976l-.512-1.132c.404-.2112.847-.3706 1.327-.4784.481-.1123.935-.1685 1.361-.1685.948 0 1.662.2066 2.143.6199.485.4133.728 1.0624.728 1.9474v5.02h-1.132Zm-2.359-1.0781c.575 0 1.036-.1595 1.382-.4784.35-.3235.525-.7749.525-1.3544v-.6469l-.956.0404c-.746.027-1.29.1528-1.631.3774-.337.2201-.506.5592-.506 1.0174 0 .3325.099.5908.297.7749.198.1797.494.2696.889.2696ZM140.109 36.5873h-1.597v-6.2127h-2.055c-.126 1.5992-.297 2.8481-.512 3.7465-.211.8984-.49 1.5543-.836 1.9676-.341.4133-.786.6199-1.334.6199-.346 0-.636-.0494-.869-.1482v-1.2399c.166.0629.332.0943.498.0943.459 0 .818-.5143 1.079-1.543.265-1.0332.471-2.6122.62-4.737h5.006v7.4525ZM145.634 36.7221c-1.159 0-2.066-.3369-2.722-1.0108-.651-.6783-.977-1.6104-.977-2.7964 0-1.2173.303-2.1742.91-2.8705.606-.6963 1.44-1.0444 2.5-1.0444.984 0 1.761.2987 2.331.8962.571.5975.856 1.4195.856 2.4662v.8558h-4.966c.022.7232.218 1.2802.586 1.6711.368.3863.887.5794 1.557.5794.44 0 .849-.0404 1.226-.1212.382-.0854.791-.2246 1.226-.4178v1.287c-.386.1842-.777.3145-1.172.3908-.395.0764-.847.1146-1.355.1146Zm-.289-6.5227c-.503 0-.908.1595-1.213.4784-.301.319-.481.7839-.539 1.3949h3.382c-.009-.6155-.157-1.0804-.444-1.3949-.288-.3189-.683-.4784-1.186-.4784ZM154.111 36.7221c-.943 0-1.675-.3392-2.196-1.0175h-.095c.063.6289.095 1.0107.095 1.1455v3.0524h-1.584V29.1348h1.28c.036.1392.11.4716.223.9972h.081c.494-.7547 1.235-1.132 2.223-1.132.93 0 1.653.3369 2.17 1.0107.521.6739.782 1.6195.782 2.8369 0 1.2173-.265 2.1674-.796 2.8503-.525.6828-1.253 1.0242-2.183 1.0242Zm-.384-6.4283c-.629 0-1.089.1841-1.381.5525-.288.3683-.431.9568-.431 1.7654v.2359c0 .9074.143 1.5655.431 1.9743.287.4043.757.6064 1.408.6064.548 0 .97-.2246 1.267-.6738.296-.4492.445-1.0894.445-1.9204 0-.8356-.149-1.4667-.445-1.8935-.292-.4312-.723-.6468-1.294-.6468ZM162.184 36.7221c-1.159 0-2.067-.3369-2.723-1.0108-.651-.6783-.977-1.6104-.977-2.7964 0-1.2173.304-2.1742.91-2.8705.606-.6963 1.44-1.0444 2.5-1.0444.984 0 1.761.2987 2.331.8962.571.5975.856 1.4195.856 2.4662v.8558h-4.966c.022.7232.218 1.2802.586 1.6711.369.3863.887.5794 1.557.5794.44 0 .849-.0404 1.226-.1212.382-.0854.791-.2246 1.227-.4178v1.287c-.387.1842-.778.3145-1.173.3908-.395.0764-.847.1146-1.354.1146Zm-.29-6.5227c-.503 0-.907.1595-1.213.4784-.301.319-.481.7839-.539 1.3949h3.383c-.009-.6155-.158-1.0804-.445-1.3949-.288-.3189-.683-.4784-1.186-.4784ZM167.642 36.5873h-1.772l2.075-3.0524c-.503-.1438-.899-.3998-1.186-.7682-.288-.3729-.431-.8333-.431-1.3813 0-.7053.251-1.2556.754-1.6509.504-.3998 1.191-.5997 2.062-.5997h3.396v7.4525h-1.59v-2.8705h-1.502l-1.806 2.8705Zm.229-5.1885c0 .3819.144.6694.431.8625.292.1887.683.283 1.173.283h1.475v-2.2101h-1.725c-.431 0-.766.0921-1.004.2762-.233.1842-.35.447-.35.7884ZM0 21.5989h11.6611c4.599 0 6.9531-2.0828 6.9531-6.0477v-.0617c0-2.9467-1.4967-4.7363-4.3808-5.2455v-.27766c2.4164-.46283 3.6792-2.03647 3.6792-4.59748v-.07713C17.9126 1.80505 15.7145 0 11.4117 0H0v21.5989ZM4.59897 8.84011V3.0547h5.44083c2.1981 0 3.2894.95652 3.2894 2.83871v.06171c0 1.91304-1.0913 2.88499-3.2894 2.88499H4.59897Zm0 9.68869V11.648h5.58113c2.4164 0 3.6168 1.1416 3.6168 3.3786v.0618c0 2.2833-1.2004 3.4404-3.6168 3.4404H4.59897ZM22.9462 0v21.5989h4.5366V0h-4.5366ZM36.9751 22c3.6636 0 6.3295-1.6199 7.3116-4.3661l.3118.0772C44.0061 20.7041 44.6297 22 48.2153 22c.4521 0 .9042-.0463 1.2784-.108l.53-2.669-.7794-.0154c-.8575-.0155-1.1069-.216-1.1069-1.3114v-7.4207c0-3.67185-2.4632-5.43062-7.7169-5.43062-5.5812 0-8.4029 2.17532-8.1691 5.93972l4.4743.3702c-.1871-2.48383 1.0913-3.61006 3.6012-3.61006 2.2449 0 3.305.81767 3.305 2.68446v.9102l-4.4274.8023c-4.4275.8176-7.3584 2.2061-7.3584 5.6002v.0463c0 2.6845 1.8396 4.2118 5.129 4.2118Zm1.8084-2.993c-1.5278 0-2.354-.54-2.354-1.6508v-.0308c0-1.5891 1.4498-2.237 4.3183-2.7924l2.8841-.5554v.7559c0 2.4839-2.2605 4.2735-4.8484 4.2735ZM53.8414 21.5989h4.5366v-7.5288c0-3.6409 1.7304-5.89338 4.5989-5.89338 2.1358 0 3.1959 1.09537 3.1959 3.19358v10.2286h4.5367V10.2903c0-3.39409-2.0111-5.18371-5.7527-5.18371-3.3985 0-5.7214 1.48107-7.0933 4.56662l-.3118-.13885c.6236-1.8359.8419-2.93127.8419-4.13464h-4.5522V21.5989ZM84.2083 21.9846c5.3473 0 8.3405-2.1291 8.7926-6.2483l-4.5834-.5091c-.187 2.5919-1.6213 3.9032-4.1936 3.9032-2.8841 0-4.3807-1.7896-4.3807-5.3225v-.756c0-3.45583 1.5122-5.19917 4.3339-5.19917 2.6035 0 3.9598 1.43479 4.1625 4.30437l4.521-.5091c-.3586-4.36609-3.2426-6.63397-8.6679-6.63397-5.8929 0-8.9953 2.85413-8.9953 8.31557v.2006c0 5.554 3.0712 8.4544 9.0109 8.4544ZM97.5201 21.5989h4.5369v-7.5288c0-3.6409 1.715-5.87795 4.599-5.87795 2.135 0 3.196 1.07994 3.196 3.17815v10.2286h4.536V10.2903c0-3.39409-2.026-5.18371-5.752-5.18371-3.43 0-5.737 1.48107-7.094 4.55119l-.327-.12342c.608-1.72791.826-3.00841.842-4.53576V0h-4.5369v21.5989ZM123.803 22c3.663 0 6.329-1.6199 7.311-4.3661l.312.0772c-.593 2.993.031 4.2889 3.617 4.2889.452 0 .904-.0463 1.278-.108l.53-2.669-.779-.0154c-.858-.0155-1.107-.216-1.107-1.3114v-7.4207c0-3.67185-2.463-5.43062-7.717-5.43062-5.581 0-8.403 2.17532-8.169 5.93972l4.474.3702c-.187-2.48383 1.091-3.61006 3.601-3.61006 2.245 0 3.305.81767 3.305 2.68446v.9102l-4.427.8023c-4.428.8176-7.359 2.2061-7.359 5.6002v.0463c0 2.6845 1.84 4.2118 5.13 4.2118Zm1.808-2.993c-1.528 0-2.354-.54-2.354-1.6508v-.0308c0-1.5891 1.45-2.237 4.318-2.7924l2.884-.5554v.7559c0 2.4839-2.26 4.2735-4.848 4.2735ZM140.669 21.5989h4.536v-6.7728c0-4.2272 1.325-5.78543 4.786-6.03227l2.23-.16971-.53-3.73352c-3.664.2777-5.363 1.41936-7.047 4.78261l-.296-.13885c.733-2.15989.904-3.02384.873-4.13464h-4.552V21.5989ZM162.243 21.892c3.367 0 5.566-1.5428 6.672-4.3352l.328.108c-.53 1.6971-.811 3.0393-.826 3.9341H173V0h-4.537v4.39691c0 1.69706.234 3.07013.795 4.93689l-.311.12342c-1.107-2.777-3.321-4.38148-6.704-4.38148-4.677 0-7.14 2.82328-7.14 8.22296v.3857c0 5.3843 2.463 8.2076 7.14 8.2076Zm1.715-2.777c-2.806 0-4.272-1.7742-4.272-5.2763v-.7097c0-3.5175 1.466-5.30712 4.272-5.30712 2.931 0 4.505 1.88219 4.505 5.38432v.5554c0 3.4866-1.574 5.3534-4.505 5.3534Z" fill="#fff"/></svg>