<svg width="28" height="28" fill="none" xmlns="http://www.w3.org/2000/svg"><path fill="#fff" d="M6.25647 20.2722.00000813 26.45442667l1.56411547 1.54555667 6.25646187-6.18222667z"/><path fill-rule="evenodd" clip-rule="evenodd" d="M15.3286 23.3112c-5.78642 0-10.26383-4.7622-10.26383-10.3605 0-5.59842 4.47741-10.36057 10.26383-10.36057 5.7864 0 10.2638 4.76215 10.2638 10.36057 0 5.5983-4.4774 10.3605-10.2638 10.3605Zm0 2.5901c-6.99822 0-12.6714-5.7982-12.6714-12.9506C2.6572 5.79821 8.33038 0 15.3286 0 22.3268 0 28 5.79821 28 12.9507c0 7.1524-5.6732 12.9506-12.6714 12.9506Z" fill="#fff"/></svg>