<svg width="29" height="29" fill="none" xmlns="http://www.w3.org/2000/svg"><g clip-path="url(#a)"><path d="M24.1666 4.83325H4.83329c-1.32916 0-2.41666 1.0875-2.41666 2.41667V21.7499c0 1.3292 1.0875 2.4167 2.41666 2.4167H24.1666c1.3292 0 2.4167-1.0875 2.4167-2.4167V7.24992c0-1.32917-1.0875-2.41667-2.4167-2.41667Zm-.4833 5.13542-7.9025 4.94213c-.7854.4954-1.7763.4954-2.5617 0L5.31663 9.96867c-.30209-.19334-.48334-.51958-.48334-.87 0-.80958.88209-1.29292 1.57084-.87L14.5 13.2916l8.0958-5.06293c.6887-.42292 1.5708.06042 1.5708.87 0 .35042-.1812.67666-.4833.87Z" fill="#1C1C1C"/></g><defs><clipPath id="a"><path fill="#fff" d="M0 0h29v29H0z"/></clipPath></defs></svg>