<svg width="29" height="29" fill="none" xmlns="http://www.w3.org/2000/svg"><g clip-path="url(#a)"><path d="M14.5 2.41675c-4.67626 0-8.45834 3.78208-8.45834 8.45835 0 5.0387 5.34084 11.9866 7.54004 14.6329.4833.58 1.3654.58 1.8487 0 2.1871-2.6463 7.5279-9.5942 7.5279-14.6329 0-4.67627-3.7821-8.45835-8.4583-8.45835Zm0 11.47915c-1.6675 0-3.0208-1.3533-3.0208-3.0208 0-1.66752 1.3533-3.02085 3.0208-3.02085s3.0208 1.35333 3.0208 3.02085c0 1.6675-1.3533 3.0208-3.0208 3.0208Z" fill="#1C1C1C"/></g><defs><clipPath id="a"><path fill="#fff" d="M0 0h29v29H0z"/></clipPath></defs></svg>